<svg width="1900" height="280" viewBox="0 0 1900 280" fill="none" xmlns="http://www.w3.org/2000/svg"> <rect y="10" width="1900" height="260" fill="url(#paint0_linear)"/> <path d="M1002 280.5L1062 0.5H1549.5L1489.5 280.5H1002Z" 
fill="url(#paint1_linear)"/> <path d="M950 280L1010 0H1497.5L1437.5 280H950Z" fill="url(#paint2_linear)"/> <g style="mix-blend-mode:lighten" opacity="0.4"> <rect x="350" y="68" width="577" height="72" fill="#56CCF2"/> </g> <path 
d="M387.121 99.959H370.495V114.461H389.611V117H367.492V81.4531H389.489V84.0166H370.495V97.4199H387.121V99.959ZM411.096 110.286C411.096 108.838 410.51 107.674 409.338 106.795C408.182 105.916 406.433 105.232 404.089 104.744C401.745 
104.24 399.922 103.67 398.62 103.035C397.334 102.384 396.374 101.595 395.739 100.667C395.121 99.7393 394.812 98.6162 394.812 97.2979C394.812 95.2145 395.682 93.4974 397.424 92.1465C399.165 90.7793 401.395 90.0957 404.113 
90.0957C407.059 90.0957 409.419 90.8281 411.193 92.293C412.984 93.7415 413.879 95.6377 413.879 97.9814H410.949C410.949 96.4352 410.298 95.1494 408.996 94.124C407.71 93.0986 406.083 92.5859 404.113 92.5859C402.193 92.5859 400.646 
93.0173 399.475 93.8799C398.319 94.7262 397.741 95.833 397.741 97.2002C397.741 98.5186 398.221 99.5439 399.182 100.276C400.158 100.993 401.924 101.652 404.479 102.254C407.051 102.856 408.972 103.499 410.241 104.183C411.527 
104.866 412.479 105.688 413.098 106.648C413.716 107.609 414.025 108.772 414.025 110.14C414.025 112.369 413.122 114.152 411.315 115.486C409.525 116.821 407.181 117.488 404.284 117.488C401.208 117.488 398.71 116.748 396.789 
115.267C394.885 113.769 393.933 111.881 393.933 109.603H396.862C396.976 111.312 397.692 112.646 399.011 113.606C400.345 114.55 402.103 115.022 404.284 115.022C406.319 115.022 407.963 114.575 409.216 113.68C410.469 112.785 411.096 
111.653 411.096 110.286ZM425.158 83.8213V90.584H430.627V92.9766H425.158V110.579C425.158 112.044 425.419 113.134 425.939 113.851C426.477 114.567 427.364 114.925 428.601 114.925C429.089 114.925 429.878 114.843 430.969 
114.681L431.091 117.073C430.326 117.35 429.284 117.488 427.966 117.488C425.964 117.488 424.507 116.91 423.596 115.755C422.684 114.583 422.229 112.866 422.229 110.604V92.9766H417.37V90.584H422.229V83.8213H425.158ZM453.356 
117C453.063 116.17 452.876 114.941 452.795 113.313C451.77 114.648 450.459 115.682 448.864 116.414C447.285 117.13 445.609 117.488 443.835 117.488C441.296 117.488 439.237 116.78 437.658 115.364C436.096 113.948 435.314 112.158 
435.314 109.993C435.314 107.422 436.381 105.387 438.513 103.89C440.661 102.392 443.648 101.644 447.473 101.644H452.771V98.6406C452.771 96.7526 452.185 95.2715 451.013 94.1973C449.857 93.1068 448.164 92.5615 445.935 92.5615C443.9 
92.5615 442.215 93.0824 440.881 94.124C439.546 95.1657 438.879 96.4189 438.879 97.8838L435.949 97.8594C435.949 95.7598 436.926 93.945 438.879 92.415C440.832 90.8688 443.233 90.0957 446.081 90.0957C449.027 90.0957 451.346 90.8363 
453.039 92.3174C454.748 93.7822 455.627 95.833 455.676 98.4697V110.97C455.676 113.525 455.944 115.438 456.481 116.707V117H453.356ZM444.177 114.9C446.13 114.9 447.871 114.428 449.401 113.484C450.948 112.54 452.071 111.279 452.771 
109.7V103.89H447.546C444.632 103.922 442.354 104.459 440.71 105.501C439.066 106.526 438.244 107.942 438.244 109.749C438.244 111.23 438.789 112.459 439.88 113.436C440.987 114.412 442.419 114.9 444.177 114.9ZM466.149 90.584L466.247 
94.8809C467.224 93.2858 468.444 92.0895 469.909 91.292C471.374 90.4945 473.002 90.0957 474.792 90.0957C478.959 90.0957 481.604 91.8047 482.727 95.2227C483.671 93.5788 484.932 92.3174 486.511 91.4385C488.09 90.5433 489.831 90.0957 
491.735 90.0957C497.399 90.0957 500.288 93.1882 500.402 99.373V117H497.473V99.5928C497.456 97.2327 496.944 95.4831 495.935 94.3438C494.942 93.2044 493.314 92.6348 491.052 92.6348C488.952 92.6673 487.178 93.3509 485.729 
94.6855C484.281 96.0039 483.475 97.6152 483.312 99.5195V117H480.383V99.373C480.367 97.1107 479.829 95.4261 478.771 94.3193C477.73 93.1963 476.118 92.6348 473.938 92.6348C472.098 92.6348 470.52 93.1637 469.201 94.2217C467.883 
95.2633 466.906 96.8177 466.271 98.8848V117H463.342V90.584H466.149ZM506.213 103.401C506.213 100.862 506.701 98.5755 507.678 96.541C508.671 94.5065 510.062 92.9277 511.853 91.8047C513.659 90.6654 515.702 90.0957 517.98 
90.0957C521.496 90.0957 524.344 91.3327 526.525 93.8066C528.706 96.2643 529.797 99.5277 529.797 103.597V104.207C529.797 106.762 529.3 109.065 528.308 111.116C527.331 113.151 525.948 114.721 524.157 115.828C522.367 116.935 520.324 
117.488 518.029 117.488C514.53 117.488 511.682 116.259 509.484 113.802C507.303 111.328 506.213 108.056 506.213 103.987V103.401ZM509.143 104.207C509.143 107.365 509.956 109.961 511.584 111.995C513.228 114.013 515.376 115.022 
518.029 115.022C520.666 115.022 522.798 114.013 524.426 111.995C526.07 109.961 526.892 107.283 526.892 103.963V103.401C526.892 101.383 526.517 99.5358 525.769 97.8594C525.02 96.1829 523.97 94.889 522.619 93.9775C521.268 93.0498 
519.722 92.5859 517.98 92.5859C515.376 92.5859 513.252 93.6113 511.608 95.6621C509.965 97.6966 509.143 100.366 509.143 103.67V104.207ZM551.672 110.286C551.672 108.838 551.086 107.674 549.914 106.795C548.758 105.916 547.009 
105.232 544.665 104.744C542.321 104.24 540.498 103.67 539.196 103.035C537.91 102.384 536.95 101.595 536.315 100.667C535.697 99.7393 535.388 98.6162 535.388 97.2979C535.388 95.2145 536.258 93.4974 538 92.1465C539.742 90.7793 
541.971 90.0957 544.689 90.0957C547.635 90.0957 549.995 90.8281 551.77 92.293C553.56 93.7415 554.455 95.6377 554.455 97.9814H551.525C551.525 96.4352 550.874 95.1494 549.572 94.124C548.286 93.0986 546.659 92.5859 544.689 
92.5859C542.769 92.5859 541.223 93.0173 540.051 93.8799C538.895 94.7262 538.317 95.833 538.317 97.2002C538.317 98.5186 538.798 99.5439 539.758 100.276C540.734 100.993 542.5 101.652 545.056 102.254C547.627 102.856 549.548 103.499 
550.817 104.183C552.103 104.866 553.055 105.688 553.674 106.648C554.292 107.609 554.602 108.772 554.602 110.14C554.602 112.369 553.698 114.152 551.892 115.486C550.101 116.821 547.757 117.488 544.86 117.488C541.784 117.488 539.286 
116.748 537.365 115.267C535.461 113.769 534.509 111.881 534.509 109.603H537.438C537.552 111.312 538.269 112.646 539.587 113.606C540.922 114.55 542.679 115.022 544.86 115.022C546.895 115.022 548.539 114.575 549.792 113.68C551.045 
112.785 551.672 111.653 551.672 110.286ZM577.893 83.8213V90.584H583.361V92.9766H577.893V110.579C577.893 112.044 578.153 113.134 578.674 113.851C579.211 114.567 580.098 114.925 581.335 114.925C581.823 114.925 582.613 114.843 
583.703 114.681L583.825 117.073C583.06 117.35 582.019 117.488 580.7 117.488C578.698 117.488 577.242 116.91 576.33 115.755C575.419 114.583 574.963 112.866 574.963 110.604V92.9766H570.104V90.584H574.963V83.8213H577.893ZM601.623 
93.0742C601.005 92.9603 600.345 92.9033 599.646 92.9033C597.823 92.9033 596.276 93.416 595.007 94.4414C593.754 95.4505 592.858 96.9235 592.321 98.8604V117H589.416V90.584H592.272L592.321 94.7832C593.868 91.6582 596.35 90.0957 
599.768 90.0957C600.581 90.0957 601.224 90.2015 601.696 90.4131L601.623 93.0742ZM621.96 117C621.667 116.17 621.48 114.941 621.398 113.313C620.373 114.648 619.063 115.682 617.468 116.414C615.889 117.13 614.213 117.488 612.438 
117.488C609.899 117.488 607.84 116.78 606.262 115.364C604.699 113.948 603.918 112.158 603.918 109.993C603.918 107.422 604.984 105.387 607.116 103.89C609.265 102.392 612.251 101.644 616.076 101.644H621.374V98.6406C621.374 96.7526 
620.788 95.2715 619.616 94.1973C618.461 93.1068 616.768 92.5615 614.538 92.5615C612.504 92.5615 610.819 93.0824 609.484 94.124C608.15 95.1657 607.482 96.4189 607.482 97.8838L604.553 97.8594C604.553 95.7598 605.529 93.945 607.482 
92.415C609.436 90.8688 611.836 90.0957 614.685 90.0957C617.631 90.0957 619.95 90.8363 621.643 92.3174C623.352 93.7822 624.23 95.833 624.279 98.4697V110.97C624.279 113.525 624.548 115.438 625.085 116.707V117H621.96ZM612.78 
114.9C614.733 114.9 616.475 114.428 618.005 113.484C619.551 112.54 620.674 111.279 621.374 109.7V103.89H616.149C613.236 103.922 610.957 104.459 609.313 105.501C607.67 106.526 606.848 107.942 606.848 109.749C606.848 111.23 607.393 
112.459 608.483 113.436C609.59 114.412 611.022 114.9 612.78 114.9ZM653.356 104.061C653.356 108.178 652.445 111.45 650.622 113.875C648.799 116.284 646.35 117.488 643.273 117.488C639.595 117.488 636.812 116.121 634.924 
113.387L634.802 117H632.067V79.5H634.973V94.417C636.828 91.5361 639.579 90.0957 643.225 90.0957C646.35 90.0957 648.815 91.292 650.622 93.6846C652.445 96.0609 653.356 99.373 653.356 103.621V104.061ZM650.427 103.548C650.427 100.065 
649.751 97.3792 648.4 95.4912C647.049 93.5869 645.145 92.6348 642.688 92.6348C640.816 92.6348 639.229 93.0986 637.927 94.0264C636.625 94.9378 635.64 96.2806 634.973 98.0547V109.969C636.438 113.289 639.025 114.949 642.736 
114.949C645.145 114.949 647.025 113.997 648.376 112.093C649.743 110.188 650.427 107.34 650.427 103.548ZM676.501 117C676.208 116.17 676.021 114.941 675.939 113.313C674.914 114.648 673.604 115.682 672.009 116.414C670.43 117.13 
668.754 117.488 666.979 117.488C664.44 117.488 662.382 116.78 660.803 115.364C659.24 113.948 658.459 112.158 658.459 109.993C658.459 107.422 659.525 105.387 661.657 103.89C663.806 102.392 666.792 101.644 670.617 
101.644H675.915V98.6406C675.915 96.7526 675.329 95.2715 674.157 94.1973C673.002 93.1068 671.309 92.5615 669.079 92.5615C667.045 92.5615 665.36 93.0824 664.025 94.124C662.691 95.1657 662.023 96.4189 662.023 97.8838L659.094 
97.8594C659.094 95.7598 660.07 93.945 662.023 92.415C663.977 90.8688 666.377 90.0957 669.226 90.0957C672.172 90.0957 674.491 90.8363 676.184 92.3174C677.893 93.7822 678.771 95.833 678.82 98.4697V110.97C678.82 113.525 679.089 
115.438 679.626 116.707V117H676.501ZM667.321 114.9C669.274 114.9 671.016 114.428 672.546 113.484C674.092 112.54 675.215 111.279 675.915 109.7V103.89H670.69C667.777 103.922 665.498 104.459 663.854 105.501C662.211 106.526 661.389 
107.942 661.389 109.749C661.389 111.23 661.934 112.459 663.024 113.436C664.131 114.412 665.563 114.9 667.321 114.9ZM689.782 90.584V120.149C689.782 122.591 689.196 124.454 688.024 125.74C686.853 127.026 685.127 127.669 682.849 
127.669C681.97 127.669 681.115 127.514 680.285 127.205L680.334 124.788C681.05 125 681.783 125.105 682.531 125.105C685.428 125.105 686.877 123.437 686.877 120.101V90.584H689.782ZM688.342 80.9648C688.977 80.9648 689.473 81.1602 
689.831 81.5508C690.189 81.9251 690.368 82.389 690.368 82.9424C690.368 83.4958 690.189 83.9596 689.831 84.334C689.473 84.7083 688.977 84.8955 688.342 84.8955C687.723 84.8955 687.235 84.7083 686.877 84.334C686.535 83.9596 686.364 
83.4958 686.364 82.9424C686.364 82.389 686.535 81.9251 686.877 81.5508C687.235 81.1602 687.723 80.9648 688.342 80.9648ZM714.733 117C714.44 116.17 714.253 114.941 714.172 113.313C713.146 114.648 711.836 115.682 710.241 
116.414C708.662 117.13 706.986 117.488 705.212 117.488C702.673 117.488 700.614 116.78 699.035 115.364C697.473 113.948 696.691 112.158 696.691 109.993C696.691 107.422 697.757 105.387 699.89 103.89C702.038 102.392 705.025 101.644 
708.85 101.644H714.147V98.6406C714.147 96.7526 713.562 95.2715 712.39 94.1973C711.234 93.1068 709.541 92.5615 707.312 92.5615C705.277 92.5615 703.592 93.0824 702.258 94.124C700.923 95.1657 700.256 96.4189 700.256 97.8838L697.326 
97.8594C697.326 95.7598 698.303 93.945 700.256 92.415C702.209 90.8688 704.61 90.0957 707.458 90.0957C710.404 90.0957 712.723 90.8363 714.416 92.3174C716.125 93.7822 717.004 95.833 717.053 98.4697V110.97C717.053 113.525 717.321 
115.438 717.858 116.707V117H714.733ZM705.554 114.9C707.507 114.9 709.248 114.428 710.778 113.484C712.325 112.54 713.448 111.279 714.147 109.7V103.89H708.923C706.009 103.922 703.731 104.459 702.087 105.501C700.443 106.526 699.621 
107.942 699.621 109.749C699.621 111.23 700.166 112.459 701.257 113.436C702.364 114.412 703.796 114.9 705.554 114.9ZM727.648 90.584L727.746 95.1006C728.739 93.473 729.976 92.236 731.457 91.3896C732.938 90.527 734.574 90.0957 
736.364 90.0957C739.196 90.0957 741.304 90.8932 742.688 92.4883C744.071 94.0833 744.771 96.4759 744.787 99.666V117H741.882V99.6416C741.866 97.2816 741.361 95.5238 740.368 94.3682C739.392 93.2126 737.821 92.6348 735.656 
92.6348C733.85 92.6348 732.246 93.2044 730.847 94.3438C729.463 95.4668 728.438 96.9886 727.771 98.9092V117H724.865V90.584H727.648ZM751.184 103.548C751.184 99.4463 752.095 96.1829 753.918 93.7578C755.757 91.3164 758.247 90.0957 
761.389 90.0957C764.953 90.0957 767.671 91.5036 769.543 94.3193V79.5H772.448V117H769.714L769.592 113.484C767.72 116.154 764.969 117.488 761.34 117.488C758.296 117.488 755.839 116.268 753.967 113.826C752.111 111.368 751.184 
108.056 751.184 103.89V103.548ZM754.138 104.061C754.138 107.43 754.813 110.091 756.164 112.044C757.515 113.981 759.419 114.949 761.877 114.949C765.474 114.949 768.029 113.362 769.543 110.188V97.7861C768.029 94.3519 765.49 92.6348 
761.926 92.6348C759.468 92.6348 757.556 93.6032 756.188 95.54C754.821 97.4606 754.138 100.301 754.138 104.061ZM778.527 103.401C778.527 100.862 779.016 98.5755 779.992 96.541C780.985 94.5065 782.377 92.9277 784.167 91.8047C785.974 
90.6654 788.016 90.0957 790.295 90.0957C793.811 90.0957 796.659 91.3327 798.84 93.8066C801.021 96.2643 802.111 99.5277 802.111 103.597V104.207C802.111 106.762 801.615 109.065 800.622 111.116C799.646 113.151 798.262 114.721 
796.472 115.828C794.681 116.935 792.639 117.488 790.344 117.488C786.844 117.488 783.996 116.259 781.799 113.802C779.618 111.328 778.527 108.056 778.527 103.987V103.401ZM781.457 104.207C781.457 107.365 782.271 109.961 783.898 
111.995C785.542 114.013 787.691 115.022 790.344 115.022C792.98 115.022 795.113 114.013 796.74 111.995C798.384 109.961 799.206 107.283 799.206 103.963V103.401C799.206 101.383 798.832 99.5358 798.083 97.8594C797.334 96.1829 796.285 
94.889 794.934 93.9775C793.583 93.0498 792.036 92.5859 790.295 92.5859C787.691 92.5859 785.567 93.6113 783.923 95.6621C782.279 97.6966 781.457 100.366 781.457 103.67V104.207ZM841.564 104.061C841.564 108.178 840.653 111.45 838.83 
113.875C837.007 116.284 834.566 117.488 831.506 117.488C827.893 117.488 825.126 116.219 823.205 113.68V127.156H820.3V90.584H823.01L823.156 94.3193C825.061 91.5036 827.819 90.0957 831.433 90.0957C834.59 90.0957 837.064 91.292 
838.854 93.6846C840.661 96.0771 841.564 99.3975 841.564 103.646V104.061ZM838.635 103.548C838.635 100.179 837.943 97.5176 836.56 95.5645C835.176 93.6113 833.247 92.6348 830.773 92.6348C828.983 92.6348 827.445 93.0661 826.159 
93.9287C824.873 94.7913 823.889 96.0446 823.205 97.6885V110.359C823.905 111.873 824.906 113.029 826.208 113.826C827.51 114.624 829.048 115.022 830.822 115.022C833.28 115.022 835.192 114.046 836.56 112.093C837.943 110.123 838.635 
107.275 838.635 103.548ZM864.733 117C864.44 116.17 864.253 114.941 864.172 113.313C863.146 114.648 861.836 115.682 860.241 116.414C858.662 117.13 856.986 117.488 855.212 117.488C852.673 117.488 850.614 116.78 849.035 
115.364C847.473 113.948 846.691 112.158 846.691 109.993C846.691 107.422 847.757 105.387 849.89 103.89C852.038 102.392 855.025 101.644 858.85 101.644H864.147V98.6406C864.147 96.7526 863.562 95.2715 862.39 94.1973C861.234 93.1068 
859.541 92.5615 857.312 92.5615C855.277 92.5615 853.592 93.0824 852.258 94.124C850.923 95.1657 850.256 96.4189 850.256 97.8838L847.326 97.8594C847.326 95.7598 848.303 93.945 850.256 92.415C852.209 90.8688 854.61 90.0957 857.458 
90.0957C860.404 90.0957 862.723 90.8363 864.416 92.3174C866.125 93.7822 867.004 95.833 867.053 98.4697V110.97C867.053 113.525 867.321 115.438 867.858 116.707V117H864.733ZM855.554 114.9C857.507 114.9 859.248 114.428 860.778 
113.484C862.325 112.54 863.448 111.279 864.147 109.7V103.89H858.923C856.009 103.922 853.731 104.459 852.087 105.501C850.443 106.526 849.621 107.942 849.621 109.749C849.621 111.23 850.166 112.459 851.257 113.436C852.364 114.412 
853.796 114.9 855.554 114.9ZM887.072 93.0742C886.454 92.9603 885.795 92.9033 885.095 92.9033C883.272 92.9033 881.726 93.416 880.456 94.4414C879.203 95.4505 878.308 96.9235 877.771 98.8604V117H874.865V90.584H877.722L877.771 
94.7832C879.317 91.6582 881.799 90.0957 885.217 90.0957C886.031 90.0957 886.674 90.2015 887.146 90.4131L887.072 93.0742ZM907.409 117C907.116 116.17 906.929 114.941 906.848 113.313C905.822 114.648 904.512 115.682 902.917 
116.414C901.338 117.13 899.662 117.488 897.888 117.488C895.349 117.488 893.29 116.78 891.711 115.364C890.148 113.948 889.367 112.158 889.367 109.993C889.367 107.422 890.433 105.387 892.565 103.89C894.714 102.392 897.701 101.644 
901.525 101.644H906.823V98.6406C906.823 96.7526 906.237 95.2715 905.065 94.1973C903.91 93.1068 902.217 92.5615 899.987 92.5615C897.953 92.5615 896.268 93.0824 894.934 94.124C893.599 95.1657 892.932 96.4189 892.932 97.8838L890.002 
97.8594C890.002 95.7598 890.979 93.945 892.932 92.415C894.885 90.8688 897.285 90.0957 900.134 90.0957C903.08 90.0957 905.399 90.8363 907.092 92.3174C908.801 93.7822 909.68 95.833 909.729 98.4697V110.97C909.729 113.525 909.997 
115.438 910.534 116.707V117H907.409ZM898.229 114.9C900.183 114.9 901.924 114.428 903.454 113.484C905 112.54 906.123 111.279 906.823 109.7V103.89H901.599C898.685 103.922 896.407 104.459 894.763 105.501C893.119 106.526 892.297 
107.942 892.297 109.749C892.297 111.23 892.842 112.459 893.933 113.436C895.039 114.412 896.472 114.9 898.229 114.9ZM372.326 164.584L372.546 167.538C374.418 165.243 376.949 164.096 380.139 164.096C383.54 164.096 385.876 165.438 
387.146 168.124C389.001 165.438 391.646 164.096 395.08 164.096C397.945 164.096 400.077 164.934 401.477 166.61C402.876 168.271 403.576 170.777 403.576 174.13V191H396.496V174.154C396.496 172.657 396.203 171.566 395.617 
170.883C395.031 170.183 393.998 169.833 392.517 169.833C390.401 169.833 388.936 170.842 388.122 172.86L388.146 191H381.091V174.179C381.091 172.649 380.79 171.542 380.188 170.858C379.585 170.175 378.56 169.833 377.111 
169.833C375.109 169.833 373.661 170.663 372.766 172.323V191H365.71V164.584H372.326ZM421.179 191.488C417.305 191.488 414.147 190.3 411.706 187.924C409.281 185.548 408.068 182.382 408.068 178.427V177.743C408.068 175.09 408.581 
172.722 409.606 170.639C410.632 168.539 412.08 166.928 413.952 165.805C415.84 164.665 417.989 164.096 420.397 164.096C424.011 164.096 426.851 165.235 428.918 167.514C431.001 169.792 432.043 173.023 432.043 
177.206V180.087H415.222C415.45 181.812 416.133 183.196 417.272 184.237C418.428 185.279 419.885 185.8 421.643 185.8C424.361 185.8 426.485 184.815 428.015 182.846L431.481 186.728C430.424 188.225 428.991 189.397 427.185 
190.243C425.378 191.073 423.376 191.488 421.179 191.488ZM420.373 169.809C418.973 169.809 417.834 170.281 416.955 171.225C416.092 172.169 415.539 173.52 415.295 175.277H425.109V174.716C425.077 173.153 424.654 171.949 423.84 
171.103C423.026 170.24 421.87 169.809 420.373 169.809ZM443.542 164.584V192.44C443.542 195.354 442.769 197.616 441.223 199.228C439.676 200.855 437.447 201.669 434.533 201.669C433.312 201.669 432.149 201.531 431.042 
201.254V195.663C431.888 195.81 432.629 195.883 433.264 195.883C435.396 195.883 436.462 194.752 436.462 192.489V164.584H443.542ZM435.9 157.748C435.9 156.69 436.25 155.819 436.95 155.136C437.666 154.452 438.635 154.11 439.855 
154.11C441.076 154.11 442.036 154.452 442.736 155.136C443.452 155.819 443.811 156.69 443.811 157.748C443.811 158.822 443.444 159.701 442.712 160.385C441.996 161.068 441.044 161.41 439.855 161.41C438.667 161.41 437.707 161.068 
436.975 160.385C436.258 159.701 435.9 158.822 435.9 157.748ZM447.961 177.548C447.961 174.927 448.465 172.592 449.475 170.541C450.484 168.49 451.932 166.903 453.82 165.78C455.725 164.657 457.93 164.096 460.437 164.096C464.001 
164.096 466.906 165.186 469.152 167.367C471.415 169.548 472.676 172.51 472.937 176.254L472.985 178.061C472.985 182.113 471.854 185.368 469.592 187.826C467.329 190.268 464.294 191.488 460.485 191.488C456.677 191.488 453.633 
190.268 451.354 187.826C449.092 185.385 447.961 182.064 447.961 177.865V177.548ZM455.017 178.061C455.017 180.567 455.489 182.488 456.433 183.822C457.377 185.141 458.728 185.8 460.485 185.8C462.194 185.8 463.529 185.149 464.489 
183.847C465.45 182.528 465.93 180.429 465.93 177.548C465.93 175.09 465.45 173.186 464.489 171.835C463.529 170.484 462.178 169.809 460.437 169.809C458.711 169.809 457.377 170.484 456.433 171.835C455.489 173.17 455.017 175.245 
455.017 178.061ZM492.175 171.2C491.215 171.07 490.368 171.005 489.636 171.005C486.966 171.005 485.217 171.908 484.387 173.715V191H477.331V164.584H483.996L484.191 167.733C485.607 165.308 487.569 164.096 490.075 164.096C490.856 
164.096 491.589 164.201 492.272 164.413L492.175 171.2ZM510.168 191C509.842 190.365 509.606 189.576 509.46 188.632C507.751 190.536 505.529 191.488 502.795 191.488C500.207 191.488 498.059 190.74 496.35 189.242C494.657 187.745 
493.811 185.857 493.811 183.578C493.811 180.779 494.844 178.63 496.911 177.133C498.994 175.635 501.997 174.879 505.92 174.862H509.167V173.349C509.167 172.128 508.85 171.151 508.215 170.419C507.596 169.687 506.612 169.32 505.261 
169.32C504.073 169.32 503.137 169.605 502.453 170.175C501.786 170.744 501.452 171.526 501.452 172.519H494.396C494.396 170.989 494.868 169.573 495.812 168.271C496.757 166.968 498.091 165.951 499.816 165.219C501.542 164.47 503.479 
164.096 505.627 164.096C508.882 164.096 511.462 164.918 513.366 166.562C515.287 168.189 516.247 170.484 516.247 173.446V184.896C516.263 187.403 516.613 189.299 517.297 190.585V191H510.168ZM504.333 186.093C505.375 186.093 506.335 
185.865 507.214 185.409C508.093 184.937 508.744 184.311 509.167 183.529V178.988H506.53C502.998 178.988 501.118 180.209 500.891 182.65L500.866 183.065C500.866 183.944 501.175 184.669 501.794 185.238C502.412 185.808 503.259 186.093 
504.333 186.093ZM536.511 171.2C535.55 171.07 534.704 171.005 533.972 171.005C531.302 171.005 529.553 171.908 528.723 173.715V191H521.667V164.584H528.332L528.527 167.733C529.943 165.308 531.905 164.096 534.411 164.096C535.192 
164.096 535.925 164.201 536.608 164.413L536.511 171.2ZM560.827 158.09V164.584H565.344V169.76H560.827V182.943C560.827 183.92 561.014 184.62 561.389 185.043C561.763 185.466 562.479 185.678 563.537 185.678C564.318 185.678 565.01 
185.621 565.612 185.507V190.854C564.229 191.277 562.805 191.488 561.34 191.488C556.392 191.488 553.869 188.99 553.771 183.993V169.76H549.914V164.584H553.771V158.09H560.827ZM585.095 188.314C583.353 190.43 580.944 191.488 577.868 
191.488C575.036 191.488 572.871 190.674 571.374 189.047C569.893 187.419 569.136 185.035 569.104 181.894V164.584H576.159V181.649C576.159 184.4 577.412 185.775 579.919 185.775C582.312 185.775 583.955 184.945 584.851 
183.285V164.584H591.931V191H585.29L585.095 188.314ZM621.862 191.488C617.989 191.488 614.831 190.3 612.39 187.924C609.965 185.548 608.752 182.382 608.752 178.427V177.743C608.752 175.09 609.265 172.722 610.29 170.639C611.315 
168.539 612.764 166.928 614.636 165.805C616.524 164.665 618.672 164.096 621.081 164.096C624.694 164.096 627.535 165.235 629.602 167.514C631.685 169.792 632.727 173.023 632.727 177.206V180.087H615.905C616.133 181.812 616.817 
183.196 617.956 184.237C619.112 185.279 620.568 185.8 622.326 185.8C625.044 185.8 627.168 184.815 628.698 182.846L632.165 186.728C631.107 188.225 629.675 189.397 627.868 190.243C626.062 191.073 624.06 191.488 621.862 
191.488ZM621.057 169.809C619.657 169.809 618.518 170.281 617.639 171.225C616.776 172.169 616.223 173.52 615.979 175.277H625.793V174.716C625.76 173.153 625.337 171.949 624.523 171.103C623.71 170.24 622.554 169.809 621.057 
169.809ZM646.813 172.47L651.257 164.584H658.801L651.281 177.523L659.118 191H651.55L646.838 182.699L642.15 191H634.558L642.395 177.523L634.899 164.584H642.468L646.813 172.47ZM685.974 178.036C685.974 182.105 685.046 185.368 683.19 
187.826C681.351 190.268 678.861 191.488 675.72 191.488C673.05 191.488 670.894 190.561 669.25 188.705V201.156H662.194V164.584H668.737L668.981 167.172C670.69 165.121 672.92 164.096 675.671 164.096C678.926 164.096 681.457 165.3 
683.264 167.709C685.07 170.118 685.974 173.438 685.974 177.67V178.036ZM678.918 177.523C678.918 175.066 678.479 173.17 677.6 171.835C676.737 170.5 675.476 169.833 673.815 169.833C671.602 169.833 670.08 170.679 669.25 
172.372V183.188C670.113 184.929 671.651 185.8 673.864 185.8C677.233 185.8 678.918 183.041 678.918 177.523ZM702.526 191.488C698.653 191.488 695.495 190.3 693.054 187.924C690.629 185.548 689.416 182.382 689.416 
178.427V177.743C689.416 175.09 689.929 172.722 690.954 170.639C691.979 168.539 693.428 166.928 695.3 165.805C697.188 164.665 699.336 164.096 701.745 164.096C705.358 164.096 708.199 165.235 710.266 167.514C712.349 169.792 713.391 
173.023 713.391 177.206V180.087H696.569C696.797 181.812 697.481 183.196 698.62 184.237C699.776 185.279 701.232 185.8 702.99 185.8C705.708 185.8 707.832 184.815 709.362 182.846L712.829 186.728C711.771 188.225 710.339 189.397 
708.532 190.243C706.726 191.073 704.724 191.488 702.526 191.488ZM701.721 169.809C700.321 169.809 699.182 170.281 698.303 171.225C697.44 172.169 696.887 173.52 696.643 175.277H706.457V174.716C706.424 173.153 706.001 171.949 
705.188 171.103C704.374 170.24 703.218 169.809 701.721 169.809ZM732.263 171.2C731.302 171.07 730.456 171.005 729.724 171.005C727.054 171.005 725.305 171.908 724.475 173.715V191H717.419V164.584H724.084L724.279 167.733C725.695 
165.308 727.657 164.096 730.163 164.096C730.944 164.096 731.677 164.201 732.36 164.413L732.263 171.2ZM743.127 191H736.047V164.584H743.127V191ZM735.632 157.748C735.632 156.69 735.982 155.819 736.682 155.136C737.398 154.452 738.366 
154.11 739.587 154.11C740.791 154.11 741.752 154.452 742.468 155.136C743.184 155.819 743.542 156.69 743.542 157.748C743.542 158.822 743.176 159.701 742.443 160.385C741.727 161.068 740.775 161.41 739.587 161.41C738.399 161.41 
737.438 161.068 736.706 160.385C735.99 159.701 735.632 158.822 735.632 157.748ZM761.12 191.488C757.246 191.488 754.089 190.3 751.647 187.924C749.222 185.548 748.01 182.382 748.01 178.427V177.743C748.01 175.09 748.522 172.722 
749.548 170.639C750.573 168.539 752.022 166.928 753.894 165.805C755.782 164.665 757.93 164.096 760.339 164.096C763.952 164.096 766.792 165.235 768.859 167.514C770.943 169.792 771.984 173.023 771.984 
177.206V180.087H755.163C755.391 181.812 756.075 183.196 757.214 184.237C758.369 185.279 759.826 185.8 761.584 185.8C764.302 185.8 766.426 184.815 767.956 182.846L771.423 186.728C770.365 188.225 768.933 189.397 767.126 
190.243C765.319 191.073 763.317 191.488 761.12 191.488ZM760.314 169.809C758.915 169.809 757.775 170.281 756.896 171.225C756.034 172.169 755.48 173.52 755.236 175.277H765.051V174.716C765.018 173.153 764.595 171.949 763.781 
171.103C762.967 170.24 761.812 169.809 760.314 169.809ZM782.507 164.584L782.727 167.636C784.615 165.276 787.146 164.096 790.319 164.096C793.119 164.096 795.202 164.918 796.569 166.562C797.937 168.205 798.636 170.663 798.669 
173.935V191H791.613V174.105C791.613 172.608 791.288 171.526 790.637 170.858C789.986 170.175 788.903 169.833 787.39 169.833C785.404 169.833 783.915 170.679 782.922 172.372V191H775.866V164.584H782.507ZM815.026 185.8C816.328 185.8 
817.386 185.442 818.2 184.726C819.014 184.009 819.437 183.057 819.47 181.869H826.086C826.07 183.66 825.581 185.303 824.621 186.801C823.661 188.282 822.342 189.438 820.666 190.268C819.006 191.081 817.167 191.488 815.148 
191.488C811.372 191.488 808.394 190.292 806.213 187.899C804.032 185.491 802.941 182.17 802.941 177.938V177.475C802.941 173.406 804.024 170.159 806.188 167.733C808.353 165.308 811.324 164.096 815.1 164.096C818.404 164.096 821.049 
165.04 823.034 166.928C825.036 168.799 826.053 171.298 826.086 174.423H819.47C819.437 173.056 819.014 171.949 818.2 171.103C817.386 170.24 816.312 169.809 814.978 169.809C813.334 169.809 812.089 170.411 811.242 171.615C810.412 
172.803 809.997 174.74 809.997 177.426V178.158C809.997 180.876 810.412 182.829 811.242 184.018C812.072 185.206 813.334 185.8 815.026 185.8ZM837.561 191H830.48V164.584H837.561V191ZM830.065 157.748C830.065 156.69 830.415 155.819 
831.115 155.136C831.831 154.452 832.8 154.11 834.021 154.11C835.225 154.11 836.185 154.452 836.901 155.136C837.618 155.819 837.976 156.69 837.976 157.748C837.976 158.822 837.609 159.701 836.877 160.385C836.161 161.068 835.209 
161.41 834.021 161.41C832.832 161.41 831.872 161.068 831.14 160.385C830.424 159.701 830.065 158.822 830.065 157.748ZM858.703 191C858.378 190.365 858.142 189.576 857.995 188.632C856.286 190.536 854.064 191.488 851.33 
191.488C848.742 191.488 846.594 190.74 844.885 189.242C843.192 187.745 842.346 185.857 842.346 183.578C842.346 180.779 843.379 178.63 845.446 177.133C847.53 175.635 850.533 174.879 854.455 174.862H857.702V173.349C857.702 172.128 
857.385 171.151 856.75 170.419C856.132 169.687 855.147 169.32 853.796 169.32C852.608 169.32 851.672 169.605 850.988 170.175C850.321 170.744 849.987 171.526 849.987 172.519H842.932C842.932 170.989 843.404 169.573 844.348 
168.271C845.292 166.968 846.626 165.951 848.352 165.219C850.077 164.47 852.014 164.096 854.162 164.096C857.417 164.096 859.997 164.918 861.901 166.562C863.822 168.189 864.782 170.484 864.782 173.446V184.896C864.799 187.403 
865.148 189.299 865.832 190.585V191H858.703ZM852.868 186.093C853.91 186.093 854.87 185.865 855.749 185.409C856.628 184.937 857.279 184.311 857.702 183.529V178.988H855.065C851.534 178.988 849.654 180.209 849.426 182.65L849.401 
183.065C849.401 183.944 849.711 184.669 850.329 185.238C850.948 185.808 851.794 186.093 852.868 186.093Z" fill="white"/> <g style="mix-blend-mode:lighten" opacity="0.25"> <rect x="350" y="140" width="529" height="72" 
fill="#56CCF2"/> </g> <path d="M1097.23 184.286H1104.64V189.639H1097.23V198.006H1091.59V189.639H1084.17V184.286H1091.59V176.268H1097.23V184.286Z" fill="white"/> <path d="M1139.03 188.757C1139.03 192.763 1138.08 195.873 1136.18 
198.088C1134.29 200.303 1131.67 201.41 1128.3 201.41C1124.95 201.41 1122.32 200.316 1120.41 198.129C1118.49 195.928 1117.52 192.852 1117.49 188.9V183.794C1117.49 179.692 1118.44 176.493 1120.34 174.196C1122.25 171.886 1124.88 
170.73 1128.26 170.73C1131.58 170.73 1134.2 171.865 1136.12 174.135C1138.03 176.391 1139 179.562 1139.03 183.65V188.757ZM1132.98 183.753C1132.98 181.06 1132.59 179.057 1131.83 177.744C1131.06 176.432 1129.87 175.775 1128.26 
175.775C1126.66 175.775 1125.48 176.411 1124.71 177.683C1123.95 178.94 1123.55 180.861 1123.52 183.445V188.757C1123.52 191.368 1123.91 193.296 1124.69 194.54C1125.47 195.771 1126.67 196.386 1128.3 196.386C1129.87 196.386 1131.04 
195.784 1131.81 194.581C1132.57 193.364 1132.96 191.484 1132.98 188.941V183.753ZM1149.38 190.5V201H1143.35V171.141H1153.53C1156.48 171.141 1158.83 172.057 1160.58 173.889C1162.34 175.721 1163.23 178.1 1163.23 181.025C1163.23 
183.951 1162.36 186.262 1160.62 187.957C1158.89 189.652 1156.48 190.5 1153.4 190.5H1149.38ZM1149.38 185.476H1153.53C1154.67 185.476 1155.56 185.1 1156.19 184.348C1156.82 183.596 1157.14 182.502 1157.14 181.066C1157.14 179.576 
1156.81 178.394 1156.17 177.519C1155.53 176.63 1154.67 176.179 1153.59 176.165H1149.38V185.476ZM1188.29 188.757C1188.29 192.763 1187.34 195.873 1185.44 198.088C1183.55 200.303 1180.92 201.41 1177.56 201.41C1174.21 201.41 1171.58 
200.316 1169.67 198.129C1167.75 195.928 1166.78 192.852 1166.75 188.9V183.794C1166.75 179.692 1167.7 176.493 1169.6 174.196C1171.5 171.886 1174.14 170.73 1177.52 170.73C1180.84 170.73 1183.46 171.865 1185.38 174.135C1187.29 
176.391 1188.26 179.562 1188.29 183.65V188.757ZM1182.24 183.753C1182.24 181.06 1181.85 179.057 1181.09 177.744C1180.32 176.432 1179.13 175.775 1177.52 175.775C1175.92 175.775 1174.74 176.411 1173.97 177.683C1173.21 178.94 1172.81 
180.861 1172.78 183.445V188.757C1172.78 191.368 1173.17 193.296 1173.95 194.54C1174.73 195.771 1175.93 196.386 1177.56 196.386C1179.13 196.386 1180.3 195.784 1181.07 194.581C1181.83 193.364 1182.22 191.484 1182.24 
188.941V183.753ZM1201.66 190.09H1198.66V201H1192.63V171.141H1202.25C1205.27 171.141 1207.61 171.927 1209.25 173.499C1210.9 175.058 1211.73 177.279 1211.73 180.164C1211.73 184.129 1210.29 186.904 1207.4 188.49L1212.63 
200.713V201H1206.15L1201.66 190.09ZM1198.66 185.065H1202.09C1203.29 185.065 1204.19 184.669 1204.8 183.876C1205.4 183.069 1205.7 181.996 1205.7 180.656C1205.7 177.662 1204.53 176.165 1202.19 176.165H1198.66V185.065ZM1234.18 
176.165H1226.8V201H1220.75V176.165H1213.49V171.141H1234.18V176.165ZM1257.07 171.141V191.812C1257.04 194.916 1256.19 197.295 1254.51 198.949C1252.83 200.59 1250.41 201.41 1247.27 201.41C1244.07 201.41 1241.62 200.576 1239.93 
198.908C1238.24 197.24 1237.4 194.827 1237.4 191.669V171.141H1243.47V191.689C1243.47 193.385 1243.75 194.595 1244.29 195.319C1244.84 196.044 1245.83 196.406 1247.27 196.406C1248.7 196.406 1249.69 196.051 1250.22 195.34C1250.75 
194.615 1251.03 193.433 1251.04 191.792V171.141H1257.07ZM1282.52 201H1276.49L1267.67 181.415V201H1261.64V171.141H1267.67L1276.51 190.746V171.141H1282.52V201ZM1293.66 201H1287.63V171.141H1293.66V201ZM1298.72 
201V171.141H1306.62C1310.1 171.141 1312.88 172.248 1314.94 174.463C1317.02 176.678 1318.08 179.713 1318.12 183.568V188.408C1318.12 192.332 1317.08 195.415 1315 197.657C1312.94 199.886 1310.09 201 1306.45 201H1298.72ZM1304.75 
176.165V195.996H1306.56C1308.57 195.996 1309.98 195.47 1310.8 194.417C1311.62 193.351 1312.05 191.519 1312.09 188.921V183.732C1312.09 180.943 1311.7 179.002 1310.92 177.908C1310.14 176.801 1308.82 176.22 1306.95 
176.165H1304.75ZM1336.27 194.889H1328.05L1326.45 201H1320.07L1329.4 171.141H1334.92L1344.31 201H1337.87L1336.27 194.889ZM1329.36 189.864H1334.94L1332.15 179.221L1329.36 189.864ZM1347.12 201V171.141H1355.02C1358.5 171.141 1361.28 
172.248 1363.34 174.463C1365.42 176.678 1366.48 179.713 1366.52 183.568V188.408C1366.52 192.332 1365.48 195.415 1363.4 197.657C1361.34 199.886 1358.49 201 1354.85 201H1347.12ZM1353.15 176.165V195.996H1354.95C1356.96 195.996 
1358.38 195.47 1359.2 194.417C1360.02 193.351 1360.45 191.519 1360.49 188.921V183.732C1360.49 180.943 1360.1 179.002 1359.32 177.908C1358.54 176.801 1357.22 176.22 1355.34 176.165H1353.15ZM1386.29 
188.08H1376.9V195.996H1388.01V201H1370.87V171.141H1387.97V176.165H1376.9V183.22H1386.29V188.08ZM1404.11 193.166C1404.11 191.949 1403.8 191.033 1403.17 190.418C1402.55 189.789 1401.42 189.14 1399.78 188.47C1396.79 187.335 1394.64 
186.009 1393.32 184.491C1392.01 182.96 1391.36 181.155 1391.36 179.077C1391.36 176.562 1392.24 174.545 1394.02 173.027C1395.81 171.496 1398.08 170.73 1400.83 170.73C1402.66 170.73 1404.3 171.12 1405.73 171.899C1407.17 172.665 
1408.27 173.752 1409.03 175.16C1409.81 176.568 1410.2 178.168 1410.2 179.959H1404.19C1404.19 178.564 1403.89 177.505 1403.29 176.78C1402.7 176.042 1401.85 175.673 1400.73 175.673C1399.67 175.673 1398.85 175.987 1398.27 
176.616C1397.68 177.231 1397.38 178.065 1397.38 179.118C1397.38 179.938 1397.71 180.684 1398.37 181.354C1399.03 182.01 1400.19 182.693 1401.86 183.404C1404.77 184.457 1406.88 185.749 1408.19 187.28C1409.52 188.812 1410.18 190.76 
1410.18 193.125C1410.18 195.723 1409.35 197.753 1407.7 199.216C1406.05 200.679 1403.8 201.41 1400.95 201.41C1399.03 201.41 1397.27 201.014 1395.68 200.221C1394.1 199.428 1392.85 198.293 1391.95 196.816C1391.06 195.34 1390.62 
193.597 1390.62 191.587H1396.67C1396.67 193.31 1397 194.561 1397.67 195.34C1398.34 196.119 1399.44 196.509 1400.95 196.509C1403.06 196.509 1404.11 195.395 1404.11 193.166Z" fill="#60DFFF"/> <path d="M1105.31 153H1102.97L1088.89 
127.57V153H1086.53V123.141H1088.89L1103 148.611V123.141H1105.31V153ZM1129.76 123.141V144.325C1129.74 147.21 1128.96 149.445 1127.42 151.031C1125.89 152.617 1123.71 153.41 1120.88 153.41C1118.01 153.41 1115.81 152.631 1114.27 
151.072C1112.76 149.5 1112 147.224 1112 144.243V123.141H1114.34V144.161C1114.34 148.878 1116.52 151.236 1120.88 151.236C1125.17 151.236 1127.34 148.946 1127.4 144.366V123.141H1129.76ZM1150.29 
138.706H1138.7V150.826H1152.03V153H1136.36V123.141H1151.93V125.355H1138.7V136.532H1150.29V138.706ZM1164.99 149.268L1165.05 149.596L1165.13 149.268L1172.93 123.141H1175.51L1166.18 153H1163.96L1154.63 123.141H1157.2L1164.99 
149.268ZM1198.19 141.311C1198.19 145.166 1197.34 148.146 1195.65 150.252C1193.97 152.357 1191.6 153.41 1188.55 153.41C1185.53 153.41 1183.16 152.357 1181.44 150.252C1179.73 148.146 1178.87 145.187 1178.85 141.372V134.871C1178.85 
131.029 1179.71 128.049 1181.42 125.93C1183.13 123.797 1185.49 122.73 1188.51 122.73C1191.58 122.73 1193.95 123.797 1195.65 125.93C1197.34 128.062 1198.19 131.063 1198.19 134.933V141.311ZM1195.83 134.83C1195.83 131.562 1195.21 
129.108 1193.95 127.468C1192.69 125.827 1190.88 125.007 1188.51 125.007C1186.23 125.007 1184.45 125.813 1183.16 127.427C1181.88 129.026 1181.22 131.426 1181.19 134.625V141.311C1181.19 144.592 1181.84 147.06 1183.14 
148.714C1184.44 150.354 1186.24 151.175 1188.55 151.175C1190.93 151.175 1192.74 150.354 1193.97 148.714C1195.21 147.073 1195.83 144.605 1195.83 141.311V134.83ZM1218.47 145.658C1218.47 143.99 1218 142.678 1217.04 141.721C1216.1 
140.764 1214.33 139.848 1211.73 138.973C1209.13 138.098 1207.22 137.12 1206.01 136.04C1204.41 134.632 1203.61 132.772 1203.61 130.462C1203.61 128.179 1204.39 126.319 1205.96 124.884C1207.54 123.448 1209.57 122.73 1212.06 
122.73C1214.6 122.73 1216.68 123.564 1218.29 125.232C1219.9 126.9 1220.71 129.047 1220.71 131.672H1218.35C1218.35 129.662 1217.78 128.042 1216.65 126.812C1215.53 125.567 1214 124.945 1212.06 124.945C1210.17 124.945 1208.68 
125.458 1207.58 126.483C1206.5 127.495 1205.96 128.808 1205.96 130.421C1205.96 131.925 1206.48 133.155 1207.5 134.112C1208.53 135.069 1210.16 135.924 1212.4 136.676C1214.65 137.414 1216.34 138.187 1217.49 138.993C1218.64 139.786 
1219.49 140.723 1220.03 141.803C1220.58 142.883 1220.85 144.154 1220.85 145.617C1220.85 147.955 1220.06 149.842 1218.47 151.277C1216.9 152.699 1214.82 153.41 1212.22 153.41C1210.47 153.41 1208.87 153.055 1207.42 152.344C1205.99 
151.619 1204.86 150.587 1204.04 149.247C1203.23 147.894 1202.83 146.301 1202.83 144.469H1205.17C1205.17 146.574 1205.8 148.229 1207.07 149.432C1208.34 150.635 1210.06 151.236 1212.22 151.236C1214.11 151.236 1215.62 150.73 1216.75 
149.719C1217.9 148.707 1218.47 147.354 1218.47 145.658Z" fill="white"/> <path d="M1254.08 128.165H1246.69V153H1240.64V128.165H1233.38V123.141H1254.08V128.165ZM1272.96 
140.08H1263.57V147.996H1274.69V153H1257.54V123.141H1274.65V128.165H1263.57V135.22H1272.96V140.08ZM1286.05 123.141L1291.69 144.735L1297.31 123.141H1305.18V153H1299.13V144.92L1299.69 132.472L1293.72 153H1289.62L1283.65 
132.472L1284.2 144.92V153H1278.17V123.141H1286.05ZM1324.66 146.889H1316.44L1314.84 153H1308.46L1317.79 123.141H1323.31L1332.7 153H1326.26L1324.66 146.889ZM1317.75 141.864H1323.33L1320.54 131.221L1317.75 141.864ZM1348.12 
145.166C1348.12 143.949 1347.81 143.033 1347.18 142.418C1346.57 141.789 1345.44 141.14 1343.8 140.47C1340.8 139.335 1338.65 138.009 1337.34 136.491C1336.03 134.96 1335.37 133.155 1335.37 131.077C1335.37 128.562 1336.26 126.545 
1338.04 125.027C1339.83 123.496 1342.1 122.73 1344.84 122.73C1346.68 122.73 1348.31 123.12 1349.75 123.899C1351.18 124.665 1352.28 125.752 1353.05 127.16C1353.83 128.568 1354.22 130.168 1354.22 131.959H1348.21C1348.21 130.564 
1347.91 129.505 1347.3 128.78C1346.72 128.042 1345.86 127.673 1344.74 127.673C1343.69 127.673 1342.87 127.987 1342.28 128.616C1341.69 129.231 1341.4 130.065 1341.4 131.118C1341.4 131.938 1341.73 132.684 1342.38 133.354C1343.04 
134.01 1344.2 134.693 1345.87 135.404C1348.78 136.457 1350.89 137.749 1352.21 139.28C1353.53 140.812 1354.2 142.76 1354.2 145.125C1354.2 147.723 1353.37 149.753 1351.71 151.216C1350.06 152.679 1347.81 153.41 1344.97 
153.41C1343.04 153.41 1341.28 153.014 1339.7 152.221C1338.11 151.428 1336.87 150.293 1335.96 148.816C1335.08 147.34 1334.63 145.597 1334.63 143.587H1340.68C1340.68 145.31 1341.02 146.561 1341.69 147.34C1342.36 148.119 1343.45 
148.509 1344.97 148.509C1347.07 148.509 1348.12 147.395 1348.12 145.166Z" fill="#9AFC1E"/> <path d="M1105.31 106H1102.97L1088.89 80.5703V106H1086.53V76.1406H1088.89L1103 101.611V76.1406H1105.31V106ZM1129.76 
76.1406V97.3252C1129.74 100.21 1128.96 102.445 1127.42 104.031C1125.89 105.617 1123.71 106.41 1120.88 106.41C1118.01 106.41 1115.81 105.631 1114.27 104.072C1112.76 102.5 1112 100.224 1112 97.2432V76.1406H1114.34V97.1611C1114.34 
101.878 1116.52 104.236 1120.88 104.236C1125.17 104.236 1127.34 101.946 1127.4 97.3662V76.1406H1129.76ZM1150.29 91.7061H1138.7V103.826H1152.03V106H1136.36V76.1406H1151.93V78.3555H1138.7V89.5322H1150.29V91.7061ZM1164.99 
102.268L1165.05 102.596L1165.13 102.268L1172.93 76.1406H1175.51L1166.18 106H1163.96L1154.63 76.1406H1157.2L1164.99 102.268ZM1198.19 94.3105C1198.19 98.166 1197.34 101.146 1195.65 103.252C1193.97 105.357 1191.6 106.41 1188.55 
106.41C1185.53 106.41 1183.16 105.357 1181.44 103.252C1179.73 101.146 1178.87 98.1865 1178.85 94.3721V87.8711C1178.85 84.0293 1179.71 81.0488 1181.42 78.9297C1183.13 76.7969 1185.49 75.7305 1188.51 75.7305C1191.58 75.7305 1193.95 
76.7969 1195.65 78.9297C1197.34 81.0625 1198.19 84.0635 1198.19 87.9326V94.3105ZM1195.83 87.8301C1195.83 84.5625 1195.21 82.1084 1193.95 80.4678C1192.69 78.8271 1190.88 78.0068 1188.51 78.0068C1186.23 78.0068 1184.45 78.8135 
1183.16 80.4268C1181.88 82.0264 1181.22 84.4258 1181.19 87.625V94.3105C1181.19 97.5918 1181.84 100.06 1183.14 101.714C1184.44 103.354 1186.24 104.175 1188.55 104.175C1190.93 104.175 1192.74 103.354 1193.97 101.714C1195.21 100.073 
1195.83 97.6055 1195.83 94.3105V87.8301ZM1218.47 98.6582C1218.47 96.9902 1218 95.6777 1217.04 94.7207C1216.1 93.7637 1214.33 92.8477 1211.73 91.9727C1209.13 91.0977 1207.22 90.1201 1206.01 89.04C1204.41 87.6318 1203.61 85.7725 
1203.61 83.4619C1203.61 81.1787 1204.39 79.3193 1205.96 77.8838C1207.54 76.4482 1209.57 75.7305 1212.06 75.7305C1214.6 75.7305 1216.68 76.5645 1218.29 78.2324C1219.9 79.9004 1220.71 82.0469 1220.71 84.6719H1218.35C1218.35 82.6621 
1217.78 81.042 1216.65 79.8115C1215.53 78.5674 1214 77.9453 1212.06 77.9453C1210.17 77.9453 1208.68 78.458 1207.58 79.4834C1206.5 80.4951 1205.96 81.8076 1205.96 83.4209C1205.96 84.9248 1206.48 86.1553 1207.5 87.1123C1208.53 
88.0693 1210.16 88.9238 1212.4 89.6758C1214.65 90.4141 1216.34 91.1865 1217.49 91.9932C1218.64 92.7861 1219.49 93.7227 1220.03 94.8027C1220.58 95.8828 1220.85 97.1543 1220.85 98.6172C1220.85 100.955 1220.06 102.842 1218.47 
104.277C1216.9 105.699 1214.82 106.41 1212.22 106.41C1210.47 106.41 1208.87 106.055 1207.42 105.344C1205.99 104.619 1204.86 103.587 1204.04 102.247C1203.23 100.894 1202.83 99.3008 1202.83 97.4688H1205.17C1205.17 99.5742 1205.8 
101.229 1207.07 102.432C1208.34 103.635 1210.06 104.236 1212.22 104.236C1214.11 104.236 1215.62 103.73 1216.75 102.719C1217.9 101.707 1218.47 100.354 1218.47 98.6582Z" fill="white"/> <path d="M1254.98 96.0537C1254.83 99.458 
1253.87 102.035 1252.11 103.785C1250.34 105.535 1247.86 106.41 1244.64 106.41C1241.27 106.41 1238.67 105.303 1236.87 103.088C1235.08 100.859 1234.18 97.6875 1234.18 93.5723V88.5479C1234.18 84.4463 1235.11 81.2881 1236.97 
79.0732C1238.83 76.8447 1241.42 75.7305 1244.72 75.7305C1247.98 75.7305 1250.45 76.6396 1252.13 78.458C1253.82 80.2764 1254.79 82.8877 1255.02 86.292H1248.97C1248.92 84.1865 1248.59 82.7373 1247.99 81.9443C1247.4 81.1377 1246.31 
80.7344 1244.72 80.7344C1243.11 80.7344 1241.97 81.3018 1241.3 82.4365C1240.63 83.5576 1240.27 85.4102 1240.23 87.9941V93.6338C1240.23 96.6006 1240.56 98.6377 1241.22 99.7451C1241.89 100.853 1243.03 101.406 1244.64 
101.406C1246.23 101.406 1247.32 101.023 1247.92 100.258C1248.53 99.4785 1248.87 98.0771 1248.95 96.0537H1254.98ZM1278.11 76.1406V96.8125C1278.08 99.916 1277.23 102.295 1275.55 103.949C1273.87 105.59 1271.45 106.41 1268.31 
106.41C1265.11 106.41 1262.66 105.576 1260.97 103.908C1259.29 102.24 1258.44 99.8271 1258.44 96.6689V76.1406H1264.51V96.6895C1264.51 98.3848 1264.79 99.5947 1265.33 100.319C1265.88 101.044 1266.87 101.406 1268.31 101.406C1269.74 
101.406 1270.73 101.051 1271.26 100.34C1271.79 99.6152 1272.07 98.4326 1272.08 96.792V76.1406H1278.11ZM1291.73 95.0898H1288.73V106H1282.71V76.1406H1292.32C1295.34 76.1406 1297.68 76.9268 1299.32 78.499C1300.97 80.0576 1301.8 
82.2793 1301.8 85.1641C1301.8 89.1289 1300.36 91.9043 1297.47 93.4902L1302.7 105.713V106H1296.22L1291.73 95.0898ZM1288.73 90.0654H1292.16C1293.36 90.0654 1294.26 89.6689 1294.87 88.876C1295.47 88.0693 1295.77 86.9961 1295.77 
85.6562C1295.77 82.6621 1294.6 81.165 1292.26 81.165H1288.73V90.0654ZM1318.55 98.166C1318.55 96.9492 1318.24 96.0332 1317.61 95.418C1316.99 94.7891 1315.87 94.1396 1314.23 93.4697C1311.23 92.335 1309.08 91.0088 1307.77 
89.4912C1306.45 87.96 1305.8 86.1553 1305.8 84.0771C1305.8 81.5615 1306.69 79.5449 1308.46 78.0273C1310.25 76.4961 1312.52 75.7305 1315.27 75.7305C1317.1 75.7305 1318.74 76.1201 1320.17 76.8994C1321.61 77.665 1322.71 78.752 
1323.47 80.1602C1324.25 81.5684 1324.64 83.168 1324.64 84.959H1318.63C1318.63 83.5645 1318.33 82.5049 1317.73 81.7803C1317.14 81.042 1316.29 80.6729 1315.17 80.6729C1314.12 80.6729 1313.3 80.9873 1312.71 81.6162C1312.12 82.2314 
1311.83 83.0654 1311.83 84.1182C1311.83 84.9385 1312.15 85.6836 1312.81 86.3535C1313.47 87.0098 1314.63 87.6934 1316.3 88.4043C1319.21 89.457 1321.32 90.749 1322.63 92.2803C1323.96 93.8115 1324.62 95.7598 1324.62 98.125C1324.62 
100.723 1323.8 102.753 1322.14 104.216C1320.49 105.679 1318.24 106.41 1315.39 106.41C1313.47 106.41 1311.71 106.014 1310.12 105.221C1308.54 104.428 1307.29 103.293 1306.39 101.816C1305.5 100.34 1305.06 98.5967 1305.06 
96.5869H1311.11C1311.11 98.3096 1311.44 99.5605 1312.11 100.34C1312.78 101.119 1313.88 101.509 1315.39 101.509C1317.5 101.509 1318.55 100.395 1318.55 98.166ZM1349.64 93.7568C1349.64 97.7627 1348.69 100.873 1346.79 103.088C1344.91 
105.303 1342.28 106.41 1338.92 106.41C1335.57 106.41 1332.94 105.316 1331.02 103.129C1329.11 100.928 1328.14 97.8516 1328.11 93.9004V88.7939C1328.11 84.6924 1329.06 81.4932 1330.96 79.1963C1332.86 76.8857 1335.5 75.7305 1338.88 
75.7305C1342.2 75.7305 1344.82 76.8652 1346.73 79.1348C1348.64 81.3906 1349.62 84.5625 1349.64 88.6504V93.7568ZM1343.59 88.7529C1343.59 86.0596 1343.21 84.0566 1342.44 82.7441C1341.68 81.4316 1340.49 80.7754 1338.88 
80.7754C1337.28 80.7754 1336.09 81.4111 1335.33 82.6826C1334.56 83.9404 1334.17 85.8613 1334.14 88.4453V93.7568C1334.14 96.3682 1334.53 98.2959 1335.31 99.54C1336.09 100.771 1337.29 101.386 1338.92 101.386C1340.49 101.386 1341.66 
100.784 1342.42 99.5811C1343.19 98.3643 1343.58 96.4844 1343.59 93.9414V88.7529ZM1366.58 98.166C1366.58 96.9492 1366.27 96.0332 1365.64 95.418C1365.02 94.7891 1363.9 94.1396 1362.25 93.4697C1359.26 92.335 1357.11 91.0088 1355.79 
89.4912C1354.48 87.96 1353.83 86.1553 1353.83 84.0771C1353.83 81.5615 1354.71 79.5449 1356.49 78.0273C1358.28 76.4961 1360.55 75.7305 1363.3 75.7305C1365.13 75.7305 1366.77 76.1201 1368.2 76.8994C1369.64 77.665 1370.74 78.752 
1371.5 80.1602C1372.28 81.5684 1372.67 83.168 1372.67 84.959H1366.66C1366.66 83.5645 1366.36 82.5049 1365.76 81.7803C1365.17 81.042 1364.32 80.6729 1363.2 80.6729C1362.15 80.6729 1361.33 80.9873 1360.74 81.6162C1360.15 82.2314 
1359.86 83.0654 1359.86 84.1182C1359.86 84.9385 1360.18 85.6836 1360.84 86.3535C1361.5 87.0098 1362.66 87.6934 1364.33 88.4043C1367.24 89.457 1369.35 90.749 1370.66 92.2803C1371.99 93.8115 1372.65 95.7598 1372.65 98.125C1372.65 
100.723 1371.83 102.753 1370.17 104.216C1368.52 105.679 1366.27 106.41 1363.42 106.41C1361.5 106.41 1359.74 106.014 1358.15 105.221C1356.57 104.428 1355.32 103.293 1354.42 101.816C1353.53 100.34 1353.09 98.5967 1353.09 
96.5869H1359.14C1359.14 98.3096 1359.47 99.5605 1360.14 100.34C1360.81 101.119 1361.91 101.509 1363.42 101.509C1365.53 101.509 1366.58 100.395 1366.58 98.166Z" fill="#FED442"/> <defs> <linearGradient id="paint0_linear" x1="-12" 
y1="-80.0001" x2="1900" y2="360" gradientUnits="userSpaceOnUse"> <stop stop-color="#054F98"/> <stop offset="1" stop-color="#1AC4EF"/> </linearGradient> <linearGradient id="paint1_linear" x1="998.542" y1="-96.4232" x2="1576.49" 
y2="-60.8357" gradientUnits="userSpaceOnUse"> <stop stop-color="#054F98" stop-opacity="0.2"/> <stop offset="1" stop-color="#004C94"/> </linearGradient> <linearGradient id="paint2_linear" x1="946.542" y1="-96.9232" x2="1524.49" 
y2="-61.3357" gradientUnits="userSpaceOnUse"> <stop stop-color="#054F98" stop-opacity="0.2"/> <stop offset="1" stop-color="#004C94"/> </linearGradient> </defs> </svg>
