<svg width="222" height="234" viewBox="0 0 222 234" fill="none" xmlns="http://www.w3.org/2000/svg">
<path d="M94.1663 226.885H82.5228L80.3092 233.526H73.2478L85.2455 201.296H91.3993L103.463 233.526H96.402L94.1663 226.885ZM84.3158 221.506H92.3733L88.3224 209.442L84.3158 221.506Z" fill="#1AC5EF"/>
<path d="M127.636 221.771C127.636 225.608 126.817 228.604 125.179 230.759C123.541 232.898 121.253 233.968 118.317 233.968C115.719 233.968 113.646 232.972 112.096 230.98L111.809 233.526H106.053V199.525H112.451V211.722C113.926 209.995 115.867 209.132 118.272 209.132C121.194 209.132 123.482 210.209 125.134 212.364C126.802 214.503 127.636 217.521 127.636 221.417V221.771ZM121.239 221.307C121.239 218.886 120.855 217.123 120.087 216.016C119.32 214.894 118.176 214.334 116.656 214.334C114.62 214.334 113.218 215.168 112.451 216.835V226.287C113.233 227.969 114.649 228.811 116.701 228.811C118.767 228.811 120.124 227.792 120.774 225.756C121.084 224.782 121.239 223.299 121.239 221.307Z" fill="#1AC5EF"/>
<path d="M138.35 233.526H131.93V209.574H138.35V233.526ZM131.554 203.376C131.554 202.417 131.871 201.628 132.506 201.008C133.155 200.388 134.033 200.078 135.14 200.078C136.232 200.078 137.103 200.388 137.752 201.008C138.401 201.628 138.726 202.417 138.726 203.376C138.726 204.35 138.394 205.147 137.73 205.767C137.08 206.387 136.217 206.697 135.14 206.697C134.063 206.697 133.192 206.387 132.528 205.767C131.879 205.147 131.554 204.35 131.554 203.376Z" fill="#1AC5EF"/>
<path d="M154.664 233.968C151.152 233.968 148.289 232.891 146.075 230.736C143.876 228.582 142.777 225.712 142.777 222.126V221.506C142.777 219.1 143.242 216.953 144.171 215.064C145.101 213.161 146.414 211.7 148.112 210.681C149.823 209.648 151.771 209.132 153.955 209.132C157.232 209.132 159.807 210.165 161.681 212.231C163.57 214.297 164.514 217.226 164.514 221.019V223.631H149.263C149.469 225.195 150.089 226.449 151.122 227.394C152.17 228.338 153.491 228.811 155.084 228.811C157.549 228.811 159.475 227.918 160.862 226.132L164.005 229.652C163.046 231.009 161.747 232.072 160.109 232.839C158.471 233.592 156.656 233.968 154.664 233.968ZM153.933 214.312C152.664 214.312 151.631 214.74 150.834 215.595C150.052 216.451 149.55 217.676 149.329 219.27H158.228V218.761C158.198 217.344 157.814 216.252 157.077 215.485C156.339 214.703 155.291 214.312 153.933 214.312Z" fill="#1AC5EF"/>
<path d="M181.625 215.573C180.755 215.455 179.987 215.396 179.323 215.396C176.903 215.396 175.317 216.215 174.564 217.853V233.526H168.167V209.574H174.21L174.387 212.43C175.671 210.231 177.449 209.132 179.722 209.132C180.43 209.132 181.094 209.228 181.714 209.42L181.625 215.573Z" fill="#1AC5EF"/>
<path d="M193.49 203.686V209.574H197.585V214.267H193.49V226.221C193.49 227.106 193.66 227.741 193.999 228.124C194.339 228.508 194.988 228.7 195.947 228.7C196.656 228.7 197.283 228.648 197.829 228.545V233.393C196.574 233.776 195.283 233.968 193.955 233.968C189.469 233.968 187.181 231.703 187.093 227.173V214.267H183.595V209.574H187.093V203.686H193.49Z" fill="#1AC5EF"/>
<path d="M215.028 233.526C214.733 232.95 214.519 232.234 214.387 231.378C212.837 233.105 210.823 233.968 208.343 233.968C205.997 233.968 204.049 233.289 202.5 231.932C200.965 230.574 200.197 228.862 200.197 226.796C200.197 224.258 201.134 222.31 203.009 220.952C204.898 219.595 207.62 218.908 211.177 218.894H214.121V217.521C214.121 216.414 213.833 215.529 213.258 214.865C212.697 214.201 211.804 213.869 210.579 213.869C209.502 213.869 208.653 214.127 208.034 214.644C207.428 215.16 207.126 215.868 207.126 216.769H200.729C200.729 215.381 201.157 214.098 202.013 212.917C202.868 211.736 204.079 210.814 205.643 210.15C207.207 209.471 208.963 209.132 210.911 209.132C213.863 209.132 216.202 209.877 217.928 211.368C219.67 212.843 220.54 214.924 220.54 217.61V227.992C220.555 230.264 220.872 231.983 221.492 233.149V233.526H215.028ZM209.738 229.076C210.682 229.076 211.553 228.87 212.35 228.456C213.147 228.028 213.737 227.46 214.121 226.752V222.635H211.73C208.528 222.635 206.823 223.741 206.617 225.955L206.595 226.331C206.595 227.128 206.875 227.785 207.436 228.301C207.997 228.818 208.764 229.076 209.738 229.076Z" fill="#1AC5EF"/>
<path d="M19.3911 219.558H6.64078V228.191H21.6047V233.526H0V201.296H21.5604V206.675H6.64078V214.356H19.3911V219.558Z" fill="#054F98"/>
<path d="M23.6412 221.373C23.6412 217.639 24.475 214.666 26.1425 212.452C27.8249 210.239 30.1196 209.132 33.0268 209.132C35.3585 209.132 37.2843 210.002 38.8043 211.744V199.525H45.2237V233.526H39.4462L39.1363 230.98C37.5425 232.972 35.4913 233.968 32.9825 233.968C30.1639 233.968 27.8987 232.861 26.1868 230.648C24.4897 228.42 23.6412 225.328 23.6412 221.373ZM30.0385 221.838C30.0385 224.081 30.4295 225.8 31.2117 226.995C31.9938 228.191 33.1301 228.788 34.6206 228.788C36.5981 228.788 37.9926 227.955 38.8043 226.287V216.835C38.0074 215.168 36.6276 214.334 34.6649 214.334C31.5806 214.334 30.0385 216.835 30.0385 221.838Z" fill="#054F98"/>
<path d="M64.5263 231.091C62.9472 233.009 60.7631 233.968 57.974 233.968C55.4063 233.968 53.4435 233.23 52.0859 231.755C50.7429 230.279 50.0567 228.117 50.0272 225.269V209.574H56.4245V225.048C56.4245 227.541 57.5608 228.788 59.8334 228.788C62.0028 228.788 63.4933 228.036 64.3049 226.531V209.574H70.7243V233.526H64.7033L64.5263 231.091Z" fill="#054F98"/>
<path d="M2.78906 166.995V9.14172H73.0674C81.7616 9.14172 89.0068 10.2329 94.4407 12.7789C99.5123 15.3249 103.135 18.9621 106.395 24.0541L106.395 23.3622H197.812C209.032 23.3622 218.127 32.4575 218.127 43.6771V150.331C218.127 164.355 206.758 175.724 192.734 175.724H106.395C104.222 174.269 101.686 172.815 99.1501 171.723C92.2672 168.45 83.5729 166.995 73.0674 166.995H2.78906Z" fill="#56CCF2"/>
<path d="M13.9623 156.891V0H76.6616C84.4182 0 90.882 1.0845 95.7299 3.615C99.7573 5.86738 102.761 8.97897 105.423 13.2047H196.797C208.017 13.2047 217.112 22.3 217.112 33.5197V145.252C217.112 156.471 208.017 165.567 196.797 165.567H105.38V164.831C103.687 163.639 101.809 162.49 99.9314 161.59C93.7908 158.337 86.0342 156.891 76.6616 156.891H13.9623Z" fill="#054F98"/>
<rect x="117.569" y="29.4566" width="87.3543" height="107.669" fill="white"/>
<circle cx="161.246" cy="151.346" r="7.11023" fill="white"/>
<path d="M161.246 59.9609C156.815 59.9609 152.715 61.0851 148.946 63.3335C145.176 65.5157 142.167 68.4916 139.919 72.2609C137.737 76.0303 136.646 80.1303 136.646 84.561C136.646 88.9917 137.737 93.0917 139.919 96.8611C142.167 100.63 145.176 103.606 148.946 105.789C152.715 108.037 156.815 109.161 161.246 109.161C165.676 109.161 169.776 108.037 173.546 105.789C177.315 103.606 180.291 100.63 182.473 96.8611C184.722 93.0917 185.846 88.9917 185.846 84.561C185.846 80.1303 184.722 76.0303 182.473 72.2609C180.291 68.4916 177.315 65.5157 173.546 63.3335C169.776 61.0851 165.676 59.9609 161.246 59.9609ZM172.752 86.9417L155.294 96.9603C154.5 97.4232 153.707 97.4232 152.913 96.9603C152.12 96.4974 151.723 95.803 151.723 94.8772V74.2448C151.723 73.319 152.12 72.6247 152.913 72.1617C153.707 71.6988 154.5 71.6988 155.294 72.1617L172.752 82.7755C173.546 83.2384 173.942 83.9328 173.942 84.8586C173.942 85.7844 173.546 86.4788 172.752 86.9417Z" fill="#1AC5EF"/>
</svg>
